HIERARCHY
ROOT hip
{
  OFFSET 11.0045 71.4325 -293.348
  CHANNELS 6 Xposition Yposition Zposition Zrotation Xrotation Yrotation
  JOINT abdomen
  {
    OFFSET 0 20.6881 -0.73152
    CHANNELS 3 Zrotation Xrotation Yrotation
    JOINT chest
    {
      OFFSET 0 11.7043 -0.48768
      CHANNELS 3 Zrotation Xrotation Yrotation
      JOINT neck
      {
        OFFSET 0 22.1894 -2.19456
        CHANNELS 3 Zrotation Xrotation Yrotation
        JOINT head
        {
          OFFSET -0.24384 7.07133 1.2192
          CHANNELS 3 Zrotation Xrotation Yrotation
          JOINT leftEye
          {
            OFFSET 4.14528 8.04674 8.04672
            CHANNELS 3 Zrotation Xrotation Yrotation
            End Site
            {
              OFFSET 1 0 0
            }
          }
          JOINT rightEye
          {
            OFFSET -3.6576 8.04674 8.04672
            CHANNELS 3 Zrotation Xrotation Yrotation
            End Site
            {
              OFFSET 1 0 0
            }
          }
        }
      }
      JOINT rCollar
      {
        OFFSET -2.68224 19.2634 -4.8768
        CHANNELS 3 Zrotation Xrotation Yrotation
        JOINT rShldr
        {
          OFFSET -8.77824 -1.95073 1.46304
          CHANNELS 3 Zrotation Xrotation Yrotation
          JOINT rForeArm
          {
            OFFSET -28.1742 -1.7115 0.48768
            CHANNELS 3 Zrotation Xrotation Yrotation
            JOINT rHand
            {
              OFFSET -22.5879 0.773209 7.07136
              CHANNELS 3 Zrotation Xrotation Yrotation
              JOINT rThumb1
              {
                OFFSET -1.2192 -0.487915 3.41376
                CHANNELS 3 Zrotation Xrotation Yrotation
                JOINT rThumb2
                {
                  OFFSET -3.37035 -0.52449 3.41376
                  CHANNELS 3 Zrotation Xrotation Yrotation
                  End Site
                  {
                    OFFSET -1.78271 -1.18214 1.43049
                  }
                }
              }
              JOINT rIndex1
              {
                OFFSET -7.75947 0.938293 5.60832
                CHANNELS 3 Zrotation Xrotation Yrotation
                JOINT rIndex2
                {
                  OFFSET -2.54057 -0.884171 1.56538
                  CHANNELS 3 Zrotation Xrotation Yrotation
                  End Site
                  {
                    OFFSET -1.62519 -0.234802 1.16502
                  }
                }
              }
              JOINT rMid1
              {
                OFFSET -8.24714 1.18213 3.41376
                CHANNELS 3 Zrotation Xrotation Yrotation
                JOINT rMid2
                {
                  OFFSET -3.10165 -0.590103 1.0647
                  CHANNELS 3 Zrotation Xrotation Yrotation
                  End Site
                  {
                    OFFSET -2.48547 -0.328903 0.83742
                  }
                }
              }
              JOINT rRing1
              {
                OFFSET -8.82822 0.546677 1.51678
                CHANNELS 3 Zrotation Xrotation Yrotation
                JOINT rRing2
                {
                  OFFSET -2.60934 -0.819778 -0.0198488
                  CHANNELS 3 Zrotation Xrotation Yrotation
                  End Site
                  {
                    OFFSET -2.33842 -0.294052 0.168128
                  }
                }
              }
              JOINT rPinky1
              {
                OFFSET -8.27202 -0.0477905 -0.4584
                CHANNELS 3 Zrotation Xrotation Yrotation
                JOINT rPinky2
                {
                  OFFSET -1.82734 -0.647385 -0.700984
                  CHANNELS 3 Zrotation Xrotation Yrotation
                  End Site
                  {
                    OFFSET -1.69225 -0.51767 -0.607171
                  }
                }
              }
            }
          }
        }
      }
      JOINT lCollar
      {
        OFFSET 2.68224 19.2634 -4.8768
        CHANNELS 3 Zrotation Xrotation Yrotation
        JOINT lShldr
        {
          OFFSET 8.77824 -1.95073 1.46304
          CHANNELS 3 Zrotation Xrotation Yrotation
          JOINT lForeArm
          {
            OFFSET 28.1742 -1.7115 0.48768
            CHANNELS 3 Zrotation Xrotation Yrotation
            JOINT lHand
            {
              OFFSET 22.5879 0.773209 7.07136
              CHANNELS 3 Zrotation Xrotation Yrotation
              JOINT lThumb1
              {
                OFFSET 1.2192 -0.487915 3.41376
                CHANNELS 3 Zrotation Xrotation Yrotation
                JOINT lThumb2
                {
                  OFFSET 3.37035 -0.52449 3.41376
                  CHANNELS 3 Zrotation Xrotation Yrotation
                  End Site
                  {
                    OFFSET 1.78271 -1.18214 1.43049
                  }
                }
              }
              JOINT lIndex1
              {
                OFFSET 7.75947 0.938293 5.60832
                CHANNELS 3 Zrotation Xrotation Yrotation
                JOINT lIndex2
                {
                  OFFSET 2.54057 -0.884171 1.56538
                  CHANNELS 3 Zrotation Xrotation Yrotation
                  End Site
                  {
                    OFFSET 1.62519 -0.234802 1.16502
                  }
                }
              }
              JOINT lMid1
              {
                OFFSET 8.24714 1.18213 3.41376
                CHANNELS 3 Zrotation Xrotation Yrotation
                JOINT lMid2
                {
                  OFFSET 3.10165 -0.590103 1.0647
                  CHANNELS 3 Zrotation Xrotation Yrotation
                  End Site
                  {
                    OFFSET 2.48547 -0.328903 0.83742
                  }
                }
              }
              JOINT lRing1
              {
                OFFSET 8.82822 0.546677 1.51678
                CHANNELS 3 Zrotation Xrotation Yrotation
                JOINT lRing2
                {
                  OFFSET 2.60934 -0.819778 -0.0198488
                  CHANNELS 3 Zrotation Xrotation Yrotation
                  End Site
                  {
                    OFFSET 2.33842 -0.294052 0.168128
                  }
                }
              }
              JOINT lPinky1
              {
                OFFSET 8.27202 -0.0477905 -0.4584
                CHANNELS 3 Zrotation Xrotation Yrotation
                JOINT lPinky2
                {
                  OFFSET 1.82734 -0.647385 -0.700984
                  CHANNELS 3 Zrotation Xrotation Yrotation
                  End Site
                  {
                    OFFSET 1.69225 -0.51767 -0.607171
                  }
                }
              }
            }
          }
        }
      }
    }
  }
  JOINT rButtock
  {
    OFFSET -8.77824 4.35084 1.2192
    CHANNELS 3 Zrotation Xrotation Yrotation
    JOINT rThigh
    {
      OFFSET 0 -1.70687 -2.19456
      CHANNELS 3 Zrotation Xrotation Yrotation
      JOINT rShin
      {
        OFFSET 0 -36.8199 0.73152
        CHANNELS 3 Zrotation Xrotation Yrotation
        JOINT rFoot
        {
          OFFSET 0.73152 -45.1104 -5.12064
          CHANNELS 3 Zrotation Xrotation Yrotation
          End Site
          {
            OFFSET -1.1221 -3.69964 12.103
          }
        }
      }
    }
  }
  JOINT lButtock
  {
    OFFSET 8.77824 4.35084 1.2192
    CHANNELS 3 Zrotation Xrotation Yrotation
    JOINT lThigh
    {
      OFFSET 0 -1.70687 -2.19456
      CHANNELS 3 Zrotation Xrotation Yrotation
      JOINT lShin
      {
        OFFSET 0 -36.8199 0.73152
        CHANNELS 3 Zrotation Xrotation Yrotation
        JOINT lFoot
        {
          OFFSET -0.73152 -45.1104 -5.12064
          CHANNELS 3 Zrotation Xrotation Yrotation
          End Site
          {
            OFFSET 1.1221 -3.69964 12.103
          }
        }
      }
    }
  }
}
MOTION
Frames:	5
Frame Time:	0.00833333
4.87255 81.7398 -91.976 -0.178154 -7.00228 175.242 2.47372 -3.18293 -3.04816 3.58419 -4.73127 -0.770718 -2.46171 -0.992564 -1.5364 0.0393675 -5.62209 -2.80126 -0 0 0 -0 0 0 6.1885e-014 2.68296e-014 3.6729e-014 80.7047 15.6263 -5.13237 -14.4478 -7.32148 26.4594 -0.019412 3.9747 0.559515 -7.79049e-010 4.4012e-010 2.38949e-010 -1.34486e-009 7.59129e-010 4.18356e-010 -7.79049e-010 4.40124e-010 2.38936e-010 7.73091 5.47488 0.417314 -7.79051e-010 4.40124e-010 2.38944e-010 2.90554 0.965183 0.102902 -7.7904e-010 4.40124e-010 2.38947e-010 10.2786 0.731801 0.0259123 -7.79055e-010 4.40127e-010 2.38953e-010 2.22167 -0.733487 -0.20892 6.16179e-014 2.68363e-014 3.63749e-014 -86.8496 28.0799 6.57753 -18.6945 -11.4534 35.5974 0.0700939 7.53206 -1.06476 -3.17991e-010 -7.58954e-010 -5.30848e-010 -5.52067e-010 -1.31383e-009 -9.17339e-010 -3.17997e-010 -7.58953e-010 -5.30834e-010 -7.73091 5.47488 -0.417314 -3.17991e-010 -7.58956e-010 -5.30851e-010 -2.90554 0.965183 -0.102902 -3.17997e-010 -7.58955e-010 -5.30852e-010 -10.2786 0.731801 -0.0259123 -3.17989e-010 -7.58956e-010 -5.30861e-010 -2.22167 -0.733487 0.20892 -2.03217e-016 0 -3.88251e-019 4.58605 -19.9067 1.13456 -0.176633 35.2726 0.704943 -5.37402 -15.5588 -14.1767 2.03217e-016 0 3.88251e-019 -2.34284 -22.7621 -7.58357 0.308468 37.7565 -0.657296 0.0614384 -17.087 -1.01259 
4.86181 81.7213 -92.0123 -0.186872 -7.06746 175.325 2.46724 -3.196 -3.05987 3.583 -4.73542 -0.774511 -2.44158 -1.00273 -1.55264 0.0411529 -5.68005 -2.77882 -0 0 0 -0 0 0 5.17329e-014 -2.03055e-016 7.25067e-014 80.6253 15.6968 -5.00991 -14.5062 -7.3702 26.5781 -0.0182213 3.8508 0.542019 -8.44549e-010 6.79134e-010 5.29785e-010 -1.45722e-009 1.17244e-009 9.21709e-010 -8.44551e-010 6.79139e-010 5.29772e-010 7.73091 5.47488 0.417314 -8.44552e-010 6.79138e-010 5.29779e-010 2.90554 0.965183 0.102902 -8.4454e-010 6.79139e-010 5.29783e-010 10.2786 0.731801 0.0259123 -8.44555e-010 6.79142e-010 5.29788e-010 2.22167 -0.733487 -0.20892 5.14397e-014 -1.96067e-016 7.21588e-014 -86.8887 27.9725 6.56137 -18.5692 -11.3119 35.3099 0.0732563 7.69907 -1.08866 -3.74873e-010 -9.81462e-010 -4.14041e-010 -6.4993e-010 -1.69768e-009 -7.1445e-010 -3.7488e-010 -9.81462e-010 -4.14032e-010 -7.73091 5.47488 -0.417314 -3.74872e-010 -9.81463e-010 -4.14045e-010 -2.90554 0.965183 -0.102902 -3.74879e-010 -9.81465e-010 -4.14047e-010 -10.2786 0.731801 -0.0259123 -3.7487e-010 -9.81466e-010 -4.14057e-010 -2.22167 -0.733487 0.20892 -2.03217e-016 0 -3.88251e-019 4.57158 -19.9409 1.12326 -0.176539 35.2693 0.703914 -5.35371 -15.6091 -14.0862 2.03217e-016 0 3.88251e-019 -2.33649 -22.7754 -7.55495 0.308202 37.7492 -0.658054 0.0872354 -17.1649 -0.942429 
4.85091 81.7034 -92.0467 -0.195666 -7.13026 175.405 2.46038 -3.20348 -3.06687 3.58099 -4.73916 -0.776671 -2.41163 -1.01469 -1.60409 0.0360561 -5.74083 -2.72535 -0 0 0 -0 0 0 3.92176e-014 -7.38565e-014 1.24485e-013 80.5485 15.7625 -4.88695 -14.5645 -7.419 26.6967 -0.0171727 3.73711 0.52597 -9.57344e-010 9.64523e-010 9.33092e-010 -1.65106e-009 1.66604e-009 1.61948e-009 -9.57344e-010 9.64526e-010 9.3308e-010 7.73091 5.47488 0.417314 -9.57347e-010 9.64526e-010 9.33085e-010 2.90554 0.965183 0.102902 -9.57335e-010 9.64527e-010 9.33089e-010 10.2786 0.731801 0.0259123 -9.5735e-010 9.64529e-010 9.33095e-010 2.22167 -0.733487 -0.20892 3.89492e-014 -7.38529e-014 1.24174e-013 -86.927 27.8445 6.54322 -18.4418 -11.1698 35.0189 0.0764624 7.86397 -1.11227 -5.26753e-010 -1.41712e-009 -3.16834e-010 -9.12483e-010 -2.4502e-009 -5.44831e-010 -5.26761e-010 -1.41713e-009 -3.16829e-010 -7.73091 5.47488 -0.417314 -5.26754e-010 -1.41713e-009 -3.16838e-010 -2.90554 0.965183 -0.102902 -5.2676e-010 -1.41713e-009 -3.16842e-010 -10.2786 0.731801 -0.0259123 -5.26749e-010 -1.41713e-009 -3.16851e-010 -2.22167 -0.733487 0.20892 -2.03217e-016 0 -3.88251e-019 4.5549 -19.9731 1.10817 -0.176381 35.2646 0.70247 -5.33498 -15.6769 -13.9895 2.03217e-016 0 3.88251e-019 -2.33074 -22.7886 -7.52568 0.307927 37.7428 -0.658741 0.114816 -17.241 -0.868221 
4.83923 81.6861 -92.0796 -0.205045 -7.19158 175.48 2.45385 -3.20713 -3.06954 3.578 -4.74262 -0.777417 -2.37565 -1.02736 -1.68116 0.027029 -5.80567 -2.65108 -0 0 0 -0 0 0 2.34377e-014 -1.79757e-013 1.90265e-013 80.4741 15.826 -4.76386 -14.6224 -7.46778 26.8149 -0.0162354 3.63377 0.511386 -1.09977e-009 1.30929e-009 1.42841e-009 -1.89592e-009 2.26243e-009 2.4763e-009 -1.09976e-009 1.30929e-009 1.4284e-009 7.73091 5.47488 0.417314 -1.09977e-009 1.30929e-009 1.4284e-009 2.90554 0.965183 0.102902 -1.09976e-009 1.3093e-009 1.42841e-009 10.2786 0.731801 0.0259123 -1.09977e-009 1.3093e-009 1.42841e-009 2.22167 -0.733487 -0.20892 2.32286e-014 -1.79759e-013 1.90013e-013 -86.9652 27.6951 6.52356 -18.3117 -11.0259 34.7231 0.079668 8.02548 -1.13542 -7.43811e-010 -2.00431e-009 -2.12348e-010 -1.28792e-009 -3.46466e-009 -3.62104e-010 -7.43822e-010 -2.00432e-009 -2.12348e-010 -7.73091 5.47488 -0.417314 -7.43815e-010 -2.00432e-009 -2.12352e-010 -2.90554 0.965183 -0.102902 -7.4382e-010 -2.00432e-009 -2.12359e-010 -10.2786 0.731801 -0.0259123 -7.43805e-010 -2.00432e-009 -2.12365e-010 -2.22167 -0.733487 0.20892 -2.03217e-016 0 -3.88251e-019 4.53638 -20.0043 1.08911 -0.17617 35.2585 0.700597 -5.3163 -15.7537 -13.8878 2.03217e-016 0 3.88251e-019 -2.32564 -22.8027 -7.49685 0.307654 37.7373 -0.659393 0.143759 -17.3161 -0.791033 
4.82831 81.67 -92.1103 -0.217849 -7.25168 175.552 2.45162 -3.20743 -3.06764 3.57354 -4.74649 -0.776918 -2.34138 -1.04088 -1.75944 0.0184963 -5.87157 -2.58013 -0 0 0 -0 0 0 9.143e-015 -2.78522e-013 2.49147e-013 80.4024 15.89 -4.64346 -14.6796 -7.51607 26.9316 -0.0153553 3.53492 0.497438 -1.2384e-009 1.62009e-009 1.85497e-009 -2.13441e-009 2.80009e-009 3.21413e-009 -1.2384e-009 1.62009e-009 1.85496e-009 7.73091 5.47488 0.417314 -1.23841e-009 1.62009e-009 1.85496e-009 2.90554 0.965183 0.102902 -1.2384e-009 1.62009e-009 1.85496e-009 10.2786 0.731801 0.0259123 -1.23841e-009 1.62009e-009 1.85497e-009 2.22167 -0.733487 -0.20892 9.00451e-015 -2.78531e-013 2.48957e-013 -87.0025 27.5295 6.50192 -18.1799 -10.8814 34.4248 0.082957 8.18825 -1.15876 -9.72604e-010 -2.58049e-009 -1.4647e-010 -1.68391e-009 -4.46026e-009 -2.46062e-010 -9.72618e-010 -2.5805e-009 -1.46473e-010 -7.73091 5.47488 -0.417314 -9.72611e-010 -2.5805e-009 -1.46474e-010 -2.90554 0.965183 -0.102902 -9.72616e-010 -2.5805e-009 -1.46483e-010 -10.2786 0.731801 -0.0259123 -9.72598e-010 -2.5805e-009 -1.46487e-010 -2.22167 -0.733487 0.20892 -2.03217e-016 0 -3.88251e-019 4.52094 -20.0349 1.06919 -0.175976 35.2508 0.698688 -5.29694 -15.8263 -13.7875 2.03217e-016 0 3.88251e-019 -2.31746 -22.8182 -7.46777 0.307399 37.7331 -0.660089 0.172279 -17.3898 -0.715412 
